<?xml version="1.0" encoding="iso-8859-1"?>
<!-- Generator: Adobe Illustrator 19.0.0, SVG Export Plug-In . SVG Version: 6.00 Build 0)  -->
<svg version="1.1" id="Capa_1" xmlns="http://www.w3.org/2000/svg" xmlns:xlink="http://www.w3.org/1999/xlink" x="0px" y="0px"
	 viewBox="0 0 512 512" style="enable-background:new 0 0 512 512;" xml:space="preserve">
<path style="fill:#FCF05A;" d="M503.467,153.6H392.533v-17.067h118.699c-4.13-24.636-25.455-42.675-50.432-42.667H0v281.6h34.901
	c-1.024-5.641-1.024-11.426,0-17.067c2.313-13.978,10.351-26.351,22.187-34.133H17.067v-51.2h358.4v51.2H113.579
	c11.836,7.782,19.874,20.156,22.187,34.133c1.024,5.641,1.024,11.426,0,17.067h240.469c-0.521-2.816-0.777-5.675-0.768-8.533
	c0.162-28.279,23.219-51.063,51.499-50.901c24.755,0.145,45.867,17.98,50.133,42.368c1.024,5.641,1.024,11.426,0,17.067H512v-230.4
	C512,149.777,508.177,153.6,503.467,153.6z M119.467,247.467c0,4.71-3.823,8.533-8.533,8.533H42.667
	c-4.71,0-8.533-3.823-8.533-8.533V179.2c0-4.71,3.823-8.533,8.533-8.533h68.267c4.71,0,8.533,3.823,8.533,8.533V247.467z
	 M238.933,247.467c0,4.71-3.823,8.533-8.533,8.533h-68.267c-4.71,0-8.533-3.823-8.533-8.533V179.2c0-4.71,3.823-8.533,8.533-8.533
	H230.4c4.71,0,8.533,3.823,8.533,8.533V247.467z M358.4,247.467c0,4.71-3.823,8.533-8.533,8.533H281.6
	c-4.71,0-8.533-3.823-8.533-8.533V179.2c0-4.71,3.823-8.533,8.533-8.533h68.267c4.71,0,8.533,3.823,8.533,8.533V247.467z
	 M17.067,153.6v-17.067h358.4V153.6H17.067z M426.667,290.134H409.6v-17.067h17.067V290.134z M409.6,256v-85.333h68.267V256H409.6z"
	/>
<path d="M511.232,136.534c0.521,2.816,0.777,5.675,0.768,8.533v-8.533H511.232z"/>
<g>
	<path style="fill:#5A6470;" d="M493.824,136.534H392.533V153.6h110.933c4.71,0,8.533-3.823,8.533-8.533
		c0.009-2.859-0.247-5.717-0.768-8.533H493.824z"/>
	<path style="fill:#5A6470;" d="M477.867,170.667H409.6V256h68.267V170.667z M460.8,238.934h-34.133v-51.2H460.8V238.934z"/>
	<path style="fill:#5A6470;" d="M477.099,358.4c-4.873-27.853-31.411-46.481-59.264-41.6c-24.388,4.267-42.223,25.378-42.368,50.133
		c-0.009,2.859,0.247,5.717,0.768,8.533c4.685,27.853,31.061,46.635,58.914,41.95c21.495-3.618,38.332-20.454,41.95-41.95
		C478.123,369.826,478.123,364.041,477.099,358.4z M426.667,401.067c-18.85,0-34.133-15.283-34.133-34.133
		s15.283-34.133,34.133-34.133s34.133,15.283,34.133,34.133S445.517,401.067,426.667,401.067z"/>
</g>
<g>
	<rect x="426.667" y="187.734" style="fill:#CFDFE8;" width="34.133" height="51.2"/>
	<circle style="fill:#CFDFE8;" cx="426.667" cy="366.934" r="34.133"/>
</g>
<rect x="409.6" y="273.067" style="fill:#5A6470;" width="17.067" height="17.067"/>
<path style="fill:#CFDFE8;" d="M113.579,324.267h261.888V307.2h-358.4v17.067h40.021C74.197,312.892,96.469,312.892,113.579,324.267
	z"/>
<rect x="17.067" y="290.134" style="fill:#5A6470;" width="358.4" height="17.067"/>
<rect x="17.067" y="273.067" style="fill:#CFDFE8;" width="358.4" height="17.067"/>
<g>
	<polygon style="fill:#5A6470;" points="375.467,136.534 17.067,136.534 17.067,153.6 375.467,153.6 375.467,145.067 	"/>
	<path style="fill:#5A6470;" d="M349.867,170.667H281.6c-4.71,0-8.533,3.823-8.533,8.533v68.267c0,4.71,3.823,8.533,8.533,8.533
		h68.267c4.71,0,8.533-3.823,8.533-8.533V179.2C358.4,174.49,354.577,170.667,349.867,170.667z M341.333,238.934h-51.2v-51.2h51.2
		V238.934z"/>
</g>
<rect x="290.133" y="187.734" style="fill:#CFDFE8;" width="51.2" height="51.2"/>
<path style="fill:#5A6470;" d="M230.4,170.667h-68.267c-4.71,0-8.533,3.823-8.533,8.533v68.267c0,4.71,3.823,8.533,8.533,8.533
	H230.4c4.71,0,8.533-3.823,8.533-8.533V179.2C238.933,174.49,235.11,170.667,230.4,170.667z M221.867,238.934h-51.2v-51.2h51.2
	V238.934z"/>
<rect x="170.667" y="187.734" style="fill:#CFDFE8;" width="51.2" height="51.2"/>
<path style="fill:#394D5C;" d="M135.765,358.4c-4.685-27.853-31.061-46.635-58.914-41.95c-21.495,3.618-38.332,20.454-41.95,41.95
	c-1.024,5.641-1.024,11.426,0,17.067c4.685,27.853,31.061,46.635,58.914,41.95c21.495-3.618,38.332-20.454,41.95-41.95
	C136.789,369.826,136.789,364.041,135.765,358.4z M85.333,401.067c-18.85,0-34.133-15.283-34.133-34.133S66.483,332.8,85.333,332.8
	s34.133,15.283,34.133,34.133S104.183,401.067,85.333,401.067z"/>
<path style="fill:#5A6470;" d="M110.933,170.667H42.667c-4.71,0-8.533,3.823-8.533,8.533v68.267c0,4.71,3.823,8.533,8.533,8.533
	h68.267c4.71,0,8.533-3.823,8.533-8.533V179.2C119.467,174.49,115.644,170.667,110.933,170.667z M102.4,238.934H51.2v-51.2h51.2
	V238.934z"/>
<g>
	<circle style="fill:#CFDFE8;" cx="85.333" cy="366.934" r="34.133"/>
	<rect x="51.2" y="187.734" style="fill:#CFDFE8;" width="51.2" height="51.2"/>
</g>
<path d="M42.667,256h68.267c4.71,0,8.533-3.823,8.533-8.533V179.2c0-4.71-3.823-8.533-8.533-8.533H42.667
	c-4.71,0-8.533,3.823-8.533,8.533v68.267C34.133,252.177,37.956,256,42.667,256z M51.2,187.734h51.2v51.2H51.2V187.734z"/>
<path d="M162.133,256H230.4c4.71,0,8.533-3.823,8.533-8.533V179.2c0-4.71-3.823-8.533-8.533-8.533h-68.267
	c-4.71,0-8.533,3.823-8.533,8.533v68.267C153.6,252.177,157.423,256,162.133,256z M170.667,187.734h51.2v51.2h-51.2V187.734z"/>
<path d="M281.6,256h68.267c4.71,0,8.533-3.823,8.533-8.533V179.2c0-4.71-3.823-8.533-8.533-8.533H281.6
	c-4.71,0-8.533,3.823-8.533,8.533v68.267C273.067,252.177,276.89,256,281.6,256z M290.133,187.734h51.2v51.2h-51.2V187.734z"/>
<path d="M460.8,93.867H0v281.6h34.901c4.685,27.853,31.061,46.635,58.914,41.95c21.495-3.618,38.332-20.454,41.95-41.95h240.469
	c4.685,27.853,31.061,46.635,58.914,41.95c21.495-3.618,38.332-20.454,41.95-41.95H512V136.534h-0.768
	C507.051,111.932,485.76,93.91,460.8,93.867z M34.901,358.4H17.067v-34.133h40.021C45.295,332.092,37.265,344.448,34.901,358.4z
	 M85.333,401.067c-18.85,0-34.133-15.283-34.133-34.133S66.483,332.8,85.333,332.8s34.133,15.283,34.133,34.133
	S104.183,401.067,85.333,401.067z M375.467,358.4H135.765c-2.364-13.952-10.394-26.308-22.187-34.133h261.888V358.4z M375.467,307.2
	h-358.4v-17.067h358.4V307.2z M375.467,273.067h-358.4V153.6h358.4V273.067z M375.467,136.534h-358.4v-25.6h358.4V136.534z
	 M392.533,110.934H460.8c15.556,0.017,29.141,10.539,33.05,25.6H392.533V110.934z M426.667,401.067
	c-18.85,0-34.133-15.283-34.133-34.133s15.283-34.133,34.133-34.133s34.133,15.283,34.133,34.133S445.517,401.067,426.667,401.067z
	 M494.933,358.4h-17.835c-4.634-27.819-30.95-46.609-58.761-41.975c-9.609,1.604-18.56,5.922-25.805,12.45V153.6h102.4V358.4z"/>
<path d="M477.867,170.667H409.6V256h68.267V170.667z M460.8,238.934h-34.133v-51.2H460.8V238.934z"/>
<rect x="409.6" y="273.067" width="17.067" height="17.067"/>
<g>
</g>
<g>
</g>
<g>
</g>
<g>
</g>
<g>
</g>
<g>
</g>
<g>
</g>
<g>
</g>
<g>
</g>
<g>
</g>
<g>
</g>
<g>
</g>
<g>
</g>
<g>
</g>
<g>
</g>
</svg>
