<?xml version="1.0" encoding="UTF-8"?>
<svg width="512px" height="512px" enable-background="new 0 0 425.611 425.611" version="1.1" viewBox="0 0 425.611 425.611" xml:space="preserve" xmlns="http://www.w3.org/2000/svg">
	<path fill="#fff" d="m402.4 106.01h-379.2c-12.8 0-23.2 10.4-23.2 23.2v133.2c0 12.8 10.4 23.2 23.2 23.2h51.6c2.8 19.2 19.2 34 39.2 34s36.4-14.8 38.8-34h168c4 17.6 19.6 30.8 38.4 30.8s34.4-13.2 38.4-30.8h4.8c12.8 0 23.2-10.4 23.2-23.2v-133.2c0.4-12.8-10-23.2-23.2-23.2zm-214.4 12h46.8v72h-46.8v-72zm-58.8 0h46.8v72h-46.8v-72zm-58.8 0h46.8v72h-46.8v-72zm-58.8 11.2c0-6 5.2-11.2 11.6-11.2h35.6v72h-47.2v-60.8zm102 178.4c-15.2 0-27.6-12.4-27.6-27.6s12.4-27.6 27.6-27.6 27.6 12.4 27.6 27.6-12.4 27.6-27.6 27.6zm38.8-34.4c-3.2-18.8-19.2-32.8-38.8-32.8-19.6 0.4-35.6 14.8-38.8 33.2h-52c-6.4 0-11.2-5.2-11.2-11.2v-60.8h280.8v60.4c0 4 1.2 8 3.2 11.2h-143.2zm140-144v60.4h-45.6v-71.6h48.8c-2 3.2-3.2 7.2-3.2 11.2zm12 0c0-6.4 5.2-11.2 11.2-11.2h37.6v72h-48.8v-60.8zm54.8 175.6c-15.2 0-27.6-12.4-27.6-27.6s12.4-27.6 27.6-27.6 27.6 12.4 27.6 27.6-12.4 27.6-27.6 27.6zm43.6-31.2h-4.4c-1.6-20-18.8-36-39.2-36s-37.6 16-39.2 36h-4c-6.4 0-11.2-5.2-11.2-11.2v-60.8h54.8s14-0.4 26.4 12 19.2 32.4 19.6 59.6c-0.8 0.4-1.6 0.4-2.8 0.4zm11.2-30c-3.6-16.4-10.4-29.2-20-38.4-10.4-10.4-22-13.6-28.8-14.8v-72.4h37.2c6.4 0 11.6 5.2 11.6 11.2v114.4z"/>
</svg>