<?xml version="1.0" encoding="UTF-8"?>
<svg width="512px" height="512px" enable-background="new 0 0 372.8 372.8" version="1.1" viewBox="0 0 372.8 372.8" xml:space="preserve" xmlns="http://www.w3.org/2000/svg">
	<path fill="#fff" d="m363.6 166.6c-15.6-14-48-13.6-59.2-12.8-31.6-48-77.6-67.6-79.6-68.4-0.8-0.4-1.6-0.4-2.4-0.4h-174.8c-40.8 0-47.2 80.8-47.6 90.4v70c0 3.2 2.4 6 6 6h29.2c2.8 20.8 20.8 36.4 42 36.4 21.6 0 39.2-16 42-36.4h132.4c2.8 20.8 20.8 36.4 42 36.4s39.2-16 42-36.4h31.2c3.2 0 6-2.8 6-6v-58c0-8.4-3.2-15.2-9.2-20.8zm-176.8-69.6h34.4c6.8 3.2 42.4 20.4 69.2 57.2h-103.6v-57.2zm-104 0h92v57.2h-92v-57.2zm-35.2 0h23.6v57.2h-56.8c4.8-24.8 14.4-57.2 33.2-57.2zm29.2 179.2c-16.8 0-30.8-13.6-30.8-30.8 0-16.8 13.6-30.8 30.8-30.8 16.8 0 30.8 13.6 30.8 30.8 0 16.8-13.6 30.8-30.8 30.8zm216.8 0c-16.8 0-30.8-13.6-30.8-30.8 0-16.8 13.6-30.8 30.8-30.8 16.8 0 30.4 13.6 30.4 30.4 0.4 17.2-13.6 31.2-30.4 31.2zm67.6-36.8h-25.2c-2.8-20.8-20.8-36.4-42-36.4s-39.2 16-42 36.4h-132.8c-2.8-20.8-20.8-36.4-42-36.4-21.6 0-39.2 16-42 36.4h-23.2v-63.6c0-2.8 0.4-6 0.8-10h288.8 0.4 0.4c10.4-0.8 41.2-1.2 53.6 10 3.6 3.2 5.2 6.8 5.2 11.6v52z"/>
</svg>