<?xml version="1.0" encoding="UTF-8"?>
<svg width="512px" height="512px" viewBox="0 0 512 512" xmlns="http://www.w3.org/2000/svg">
  <g transform="matrix(4.9331 0 0 4.9331 -242.87 -83.246)" fill="#fff">
    <path d="m81.92 60.514c-4.115 1.508-8.674-0.604-10.183-4.72s0.604-8.673 4.719-10.182l43.878-16.087c4.114-1.509 8.673 0.604 10.182 4.719 1.509 4.114-0.604 8.673-4.719 10.182l-43.877 16.088z"/>
    <path d="m81.92 84.264c-4.115 1.508-8.674-0.605-10.183-4.721-1.509-4.116 0.604-8.673 4.719-10.182l43.878-16.087c4.114-1.509 8.673 0.604 10.182 4.719 1.509 4.114-0.60399 8.673-4.719 10.182l-43.877 16.089z"/>
    <path d="m81.92 108.01c-4.115 1.508-8.674-0.605-10.183-4.721s0.604-8.674 4.719-10.182l43.878-16.088c4.114-1.508 8.673 0.604 10.182 4.72 1.509 4.114-0.604 8.673-4.719 10.183l-43.877 16.088z"/>
  </g>
</svg>