<?xml version="1.0" encoding="UTF-8"?>
<svg width="512px" height="512px" version="1.1" viewBox="0 0 640 640" xmlns="http://www.w3.org/2000/svg">
  <g fill="#fff" stroke="#fff">
    <path d="m373.34 213.34h-46.328c-2.8281 0-5.543 1.1211-7.5391 3.125l-81.676 81.672c-2.0039 2-3.125 4.7148-3.1289 7.5391v24.996c0 5.8906 4.7812 10.664 10.668 10.664h128c5.8867 0 10.664-4.7734 10.664-10.664v-106.67c0-5.8906-4.7773-10.664-10.664-10.664zm-10.672 106.66h-106.66v-9.9062l75.426-75.426h31.238z"/>
    <path d="m373.34 522.66c-23.566 0-42.668 19.102-42.668 42.668s19.102 42.668 42.668 42.668c23.562 0 42.664-19.102 42.664-42.668s-19.102-42.668-42.664-42.668zm0 64c-11.781 0-21.336-9.5508-21.336-21.332s9.5547-21.332 21.336-21.332 21.332 9.5508 21.332 21.332-9.5508 21.332-21.332 21.332z"/>
    <path d="m501.33 522.66c-23.562 0-42.664 19.102-42.664 42.668s19.102 42.668 42.664 42.668c23.566 0 42.668-19.102 42.668-42.668s-19.102-42.668-42.668-42.668zm0 64c-11.781 0-21.332-9.5508-21.332-21.332s9.5508-21.332 21.332-21.332c11.785 0 21.332 9.5508 21.332 21.332s-9.5469 21.332-21.332 21.332z"/>
    <path d="m245.33 522.66c-23.566 0-42.668 19.102-42.668 42.668s19.102 42.668 42.668 42.668 42.668-19.102 42.668-42.668-19.102-42.668-42.668-42.668zm0 64c-11.781 0-21.332-9.5508-21.332-21.332s9.5508-21.332 21.332-21.332 21.332 9.5508 21.332 21.332-9.5508 21.332-21.332 21.332z"/>
    <path d="m629.33 448c5.8945 0 10.668-4.7773 10.668-10.664v-106.67c0-5.8945-4.7734-10.668-10.668-10.668h-202.67v-138.67c0-5.8867-4.7734-10.668-10.664-10.668h-106.67c-2.8281 0.003907-5.5391 1.1289-7.5391 3.1289l-24.457 24.457-195.13-195.12c-1.9961-1.9961-4.7109-3.125-7.5391-3.125h-64c-5.8945 0-10.668 4.7734-10.668 10.668v362.67c0 3.5625 1.7812 6.8945 4.7461 8.8711l96 64.004c4.9023 3.2656 11.523 1.9453 14.797-2.9609 0.67578-1.0156 1.1758-2.1367 1.4688-3.3242l32.004-128 10.668-42.664c1.3906-5.7227-2.125-11.492-7.8477-12.883-5.668-1.3789-11.391 2.0547-12.848 7.6953l-8.6406 34.598h-75.254l26.914-175.12 135.02 135.01-21.898 21.902c-2 1.9961-3.125 4.7109-3.1289 7.5391v138.66h-10.664c-5.8945 0-10.668 4.7773-10.668 10.672v54.184c-40.766 6.2109-68.785 44.293-62.574 85.059 5.5234 36.258 36.562 63.141 73.242 63.422h384c41.234-0.31641 74.41-34.004 74.09-75.238-0.28125-36.68-27.16-67.723-63.422-73.242v-43.52zm-10.664-106.67v85.332h-192v-85.332zm-518.68 78.73l-78.66-52.438v-47.625h103.67zm-17.785-326.48c-4.1406-4.1875-10.895-4.2266-15.082-0.082031-1.6406 1.6211-2.7109 3.7266-3.0469 6l-30.562 199.17h-12.184v-277.34h48.918l192 192-30.145 30.141zm131.13 198.84l26.312-26.32 45.227-45.223 28.875-28.875h91.582v234.66h-192zm405.33 272.91c-0.035157 29.441-23.895 53.301-53.336 53.336h-384c-29.453 0-53.332-23.879-53.332-53.336 0-29.453 23.879-53.332 53.332-53.332h384c29.441 0.035156 53.301 23.895 53.336 53.332zm-64-74.668h-362.67v-42.664h362.67z"/>
  </g>
</svg>